<svg width="60" height="60" viewBox="0 0 60 60" fill="none" xmlns="http://www.w3.org/2000/svg">
<path d="M50 52.5H22.5C14.2504 52.5 10.1256 52.5 7.56282 49.9372C5 47.3744 5 43.2496 5 35V7.5" stroke="#41B883" stroke-width="2.5" stroke-linecap="round"/>
<path d="M40.6465 17.5C40.6465 16.8096 41.2062 16.25 41.8965 16.25C42.5869 16.25 43.1465 16.8096 43.1465 17.5L41.8965 17.5L40.6465 17.5ZM15 43.75C14.3096 43.75 13.75 43.1904 13.75 42.5C13.75 41.8096 14.3096 41.25 15 41.25L15 42.5L15 43.75ZM37.2062 20.8537C36.7347 21.358 35.9437 21.3846 35.4394 20.9131C34.9351 20.4416 34.9086 19.6506 35.38 19.1463L36.2931 20L37.2062 20.8537ZM38.7268 17.3972L37.8137 16.5435V16.5435L38.7268 17.3972ZM45.0663 17.3972L45.9794 16.5435V16.5435L45.0663 17.3972ZM48.4131 19.1463C48.8845 19.6506 48.858 20.4416 48.3537 20.9131C47.8494 21.3846 47.0584 21.358 46.5869 20.8537L47.5 20L48.4131 19.1463ZM41.8966 15L41.8966 13.75V13.75L41.8966 15ZM41.8965 17.5L43.1465 17.5C43.1465 26.1125 40.0033 32.7225 34.833 37.1616C29.6886 41.5784 22.6521 43.75 15 43.75L15 42.5L15 41.25C22.2025 41.25 28.6142 39.2058 33.2045 35.2648C37.7688 31.346 40.6466 25.456 40.6465 17.5L41.8965 17.5ZM36.2931 20L35.38 19.1463L37.8137 16.5435L38.7268 17.3972L39.6398 18.2509L37.2062 20.8537L36.2931 20ZM45.0663 17.3972L45.9794 16.5435L48.4131 19.1463L47.5 20L46.5869 20.8537L44.1533 18.2509L45.0663 17.3972ZM38.7268 17.3972L37.8137 16.5435C38.5362 15.7708 39.1631 15.0963 39.7336 14.6308C40.3289 14.145 41.0225 13.75 41.8966 13.75L41.8966 15L41.8966 16.25C41.8422 16.25 41.698 16.2545 41.3141 16.5678C40.9054 16.9013 40.4116 17.4255 39.6398 18.2509L38.7268 17.3972ZM45.0663 17.3972L44.1533 18.2509C43.3815 17.4255 42.8877 16.9013 42.479 16.5678C42.0951 16.2545 41.9509 16.25 41.8966 16.25L41.8966 15L41.8966 13.75C42.7706 13.75 43.4642 14.145 44.0595 14.6308C44.63 15.0964 45.2569 15.7708 45.9794 16.5435L45.0663 17.3972Z" fill="#41B883"/>
</svg>
