<svg width="60" height="60" viewBox="0 0 60 60" fill="none" xmlns="http://www.w3.org/2000/svg">
<path d="M23.5039 48.1552L23.1884 49.3647L23.5039 48.1552ZM20.1041 44.0337L18.9129 44.4127L20.1041 44.0337ZM20.9304 46.212L19.8614 46.8598L20.9304 46.212ZM39.8918 44.0337L41.0829 44.4127L39.8918 44.0337ZM39.0654 46.212L40.1344 46.8598L39.0654 46.212ZM36.492 48.1552L36.8074 49.3647L36.492 48.1552ZM39.3588 41.6678L39.829 40.5096L39.3588 41.6678ZM40.1756 42.855L41.4243 42.7979L40.1756 42.855ZM20.637 41.6678L20.1668 40.5096L20.637 41.6678ZM19.8202 42.855L18.5715 42.7979L19.8202 42.855ZM37.654 48.5229C37.7839 47.8449 37.3396 47.1899 36.6616 47.06C35.9836 46.9301 35.3286 47.3744 35.1987 48.0525L36.4264 48.2877L37.654 48.5229ZM36.1492 49.734L34.9216 49.4988V49.4988L36.1492 49.734ZM23.8463 49.734L25.074 49.4988V49.4988L23.8463 49.734ZM24.7969 48.0525C24.667 47.3744 24.012 46.9301 23.334 47.06C22.656 47.1899 22.2116 47.8449 22.3415 48.5229L23.5692 48.2877L24.7969 48.0525ZM27.0265 54.7732L26.6197 55.9552V55.9552L27.0265 54.7732ZM24.6404 52.7313L23.542 53.328V53.328L24.6404 52.7313ZM35.3552 52.7313L36.4536 53.328L36.4536 53.328L35.3552 52.7313ZM32.9691 54.7732L33.3759 55.9552V55.9552L32.9691 54.7732ZM21.7941 41.5771V42.8271H38.2017V41.5771V40.3271H21.7941V41.5771ZM34.2582 48.2877V47.0377H25.7376V48.2877V49.5377H34.2582V48.2877ZM25.7376 48.2877V47.0377C24.5162 47.0377 24.1346 47.0279 23.8193 46.9457L23.5039 48.1552L23.1884 49.3647C23.889 49.5475 24.658 49.5377 25.7376 49.5377V48.2877ZM20.1041 44.0337L18.9129 44.4127C19.2565 45.4926 19.485 46.2387 19.8614 46.8598L20.9304 46.212L21.9994 45.5641C21.8146 45.2592 21.6793 44.8618 21.2952 43.6547L20.1041 44.0337ZM23.5039 48.1552L23.8193 46.9457C23.0806 46.753 22.4245 46.2656 21.9994 45.5641L20.9304 46.212L19.8614 46.8598C20.6119 48.0982 21.7988 49.0024 23.1884 49.3647L23.5039 48.1552ZM39.8918 44.0337L38.7006 43.6547C38.3165 44.8618 38.1812 45.2592 37.9964 45.5641L39.0654 46.212L40.1344 46.8598C40.5108 46.2387 40.7393 45.4927 41.0829 44.4127L39.8918 44.0337ZM34.2582 48.2877V49.5377C35.3378 49.5377 36.1068 49.5475 36.8074 49.3647L36.492 48.1552L36.1765 46.9457C35.8612 47.0279 35.4796 47.0377 34.2582 47.0377V48.2877ZM39.0654 46.212L37.9964 45.5641C37.5713 46.2656 36.9152 46.753 36.1765 46.9457L36.492 48.1552L36.8074 49.3647C38.197 49.0024 39.3839 48.0982 40.1344 46.8598L39.0654 46.212ZM38.2017 41.5771V42.8271C38.5288 42.8271 38.7169 42.8277 38.8529 42.8361C38.9862 42.8443 38.9622 42.8559 38.8887 42.826L39.3588 41.6678L39.829 40.5096C39.5321 40.3891 39.2408 40.3553 39.007 40.3409C38.7759 40.3266 38.4971 40.3271 38.2017 40.3271V41.5771ZM39.8918 44.0337L41.0829 44.4127C41.1769 44.1172 41.2638 43.8457 41.3225 43.6173C41.3817 43.3868 41.4384 43.1064 41.4243 42.7979L40.1756 42.855L38.9269 42.9121C38.9242 42.8542 38.9374 42.8538 38.9011 42.9953C38.8642 43.139 38.8034 43.3315 38.7006 43.6547L39.8918 44.0337ZM39.3588 41.6678L38.8887 42.826C38.8887 42.826 38.8901 42.8265 38.8928 42.8288C38.8957 42.8311 38.9003 42.8356 38.9054 42.843C38.9158 42.8581 38.9255 42.8815 38.9269 42.9121L40.1756 42.855L41.4243 42.7979C41.3789 41.8059 40.7769 40.8944 39.829 40.5096L39.3588 41.6678ZM21.7941 41.5771V40.3271C21.4987 40.3271 21.2199 40.3266 20.9888 40.3409C20.755 40.3553 20.4637 40.3891 20.1668 40.5096L20.637 41.6678L21.1071 42.826C21.0336 42.8559 21.0096 42.8443 21.1429 42.8361C21.2789 42.8277 21.467 42.8271 21.7941 42.8271V41.5771ZM20.1041 44.0337L21.2952 43.6547C21.1924 43.3315 21.1316 43.139 21.0947 42.9953C21.0584 42.8538 21.0716 42.8542 21.0689 42.9121L19.8202 42.855L18.5715 42.7979C18.5574 43.1064 18.6141 43.3868 18.6733 43.6173C18.732 43.8457 18.8189 44.1172 18.9129 44.4127L20.1041 44.0337ZM20.637 41.6678L20.1668 40.5096C19.2189 40.8944 18.6169 41.8059 18.5715 42.7979L19.8202 42.855L21.0689 42.9121C21.0703 42.8815 21.08 42.8581 21.0904 42.843C21.0955 42.8356 21.1001 42.8311 21.103 42.8288C21.1057 42.8265 21.1071 42.826 21.1071 42.826L20.637 41.6678ZM36.4264 48.2877L35.1987 48.0525L34.9216 49.4988L36.1492 49.734L37.3769 49.9692L37.654 48.5229L36.4264 48.2877ZM23.8463 49.734L25.074 49.4988L24.7969 48.0525L23.5692 48.2877L22.3415 48.5229L22.6187 49.9692L23.8463 49.734ZM29.9978 54.9982V53.7482C28.3564 53.7482 27.8407 53.7315 27.4332 53.5913L27.0265 54.7732L26.6197 55.9552C27.5195 56.2649 28.549 56.2482 29.9978 56.2482V54.9982ZM23.8463 49.734L22.6187 49.9692C22.9046 51.4617 23.0869 52.4902 23.542 53.328L24.6404 52.7313L25.7388 52.1346C25.5149 51.7225 25.3941 51.1695 25.074 49.4988L23.8463 49.734ZM27.0265 54.7732L27.4332 53.5913C26.7275 53.3484 26.1192 52.8349 25.7388 52.1346L24.6404 52.7313L23.542 53.328C24.2114 54.5603 25.3042 55.5025 26.6197 55.9552L27.0265 54.7732ZM36.1492 49.734L34.9216 49.4988C34.6015 51.1695 34.4807 51.7225 34.2568 52.1346L35.3552 52.7313L36.4536 53.328C36.9087 52.4902 37.091 51.4617 37.3769 49.9692L36.1492 49.734ZM29.9978 54.9982V56.2482C31.4466 56.2482 32.4761 56.2649 33.3759 55.9552L32.9691 54.7732L32.5623 53.5913C32.1548 53.7315 31.6392 53.7482 29.9978 53.7482V54.9982ZM35.3552 52.7313L34.2568 52.1346C33.8764 52.8349 33.2681 53.3484 32.5623 53.5913L32.9691 54.7732L33.3759 55.9552C34.6914 55.5025 35.7842 54.5603 36.4536 53.328L35.3552 52.7313Z" fill="#41B883"/>
<path d="M15.2234 37.5C14.2774 35.3735 13.75 33.0077 13.75 30.5147C13.75 21.2558 21.0254 13.75 30 13.75C38.9746 13.75 46.25 21.2558 46.25 30.5147C46.25 33.0077 45.7226 35.3735 44.7766 37.5" stroke="#41B883" stroke-width="2.5" stroke-linecap="round"/>
<path d="M30 5V7.5" stroke="#41B883" stroke-width="2.5" stroke-linecap="round" stroke-linejoin="round"/>
<path d="M55 30L52.5 30" stroke="#41B883" stroke-width="2.5" stroke-linecap="round" stroke-linejoin="round"/>
<path d="M7.5 30L5 30" stroke="#41B883" stroke-width="2.5" stroke-linecap="round" stroke-linejoin="round"/>
<path d="M47.6758 12.3223L45.908 14.09" stroke="#41B883" stroke-width="2.5" stroke-linecap="round" stroke-linejoin="round"/>
<path d="M14.0918 14.0913L12.324 12.3235" stroke="#41B883" stroke-width="2.5" stroke-linecap="round" stroke-linejoin="round"/>
</svg>
