<svg width="24" height="24" viewBox="0 0 24 24" fill="none" xmlns="http://www.w3.org/2000/svg">
<path d="M11.9727 0.5H12.0273C18.3635 0.500008 23.5 5.63649 23.5 11.9727V12.0273C23.5 18.3635 18.3635 23.5 12.0273 23.5H11.9727C5.63649 23.5 0.500009 18.3635 0.5 12.0273V11.9727C0.50001 5.63649 5.63649 0.500008 11.9727 0.5Z" stroke="#777777"/>
<path d="M17.8032 8.68243V10.9485C17.4071 10.9098 16.8925 10.8198 16.3233 10.6113C15.58 10.3389 15.0267 9.96639 14.6643 9.67798V14.258L14.6551 14.2437C14.661 14.3345 14.6643 14.427 14.6643 14.5204C14.6643 16.7948 12.8136 18.6463 10.5383 18.6463C8.26304 18.6463 6.41235 16.7948 6.41235 14.5204C6.41235 12.2459 8.26304 10.3935 10.5383 10.3935C10.7612 10.3935 10.9798 10.4112 11.1934 10.4457V12.6789C10.9882 12.6058 10.7679 12.5663 10.5383 12.5663C9.46123 12.5663 8.58424 13.4424 8.58424 14.5204C8.58424 15.5983 9.46123 16.4745 10.5383 16.4745C11.6155 16.4745 12.4924 15.5975 12.4924 14.5204C12.4924 14.48 12.4916 14.4396 12.4891 14.3993V5.49902H14.7535C14.7619 5.69073 14.7694 5.88413 14.7778 6.07584C14.793 6.45338 14.9275 6.81577 15.1621 7.11259C15.4371 7.46154 15.8432 7.86682 16.4133 8.19054C16.9472 8.4924 17.4483 8.62273 17.8032 8.68411V8.68243Z" fill="#777777"/>
</svg>
