<svg width="40" height="31" viewBox="0 0 40 31" fill="none" xmlns="http://www.w3.org/2000/svg">
<path d="M36.448 2.64459C38.7591 5.09804 40 7.85142 40 12.3148C40 20.165 34.4894 27.2025 26.4718 30.6807L24.4693 27.5903C31.9511 23.5421 33.4134 18.2915 33.9978 14.9805C32.7932 15.6034 31.2163 15.8226 29.6704 15.6793C25.6228 15.304 22.4326 11.9813 22.4326 7.85142C22.4326 3.5152 25.9479 1.33514e-05 30.2841 1.33514e-05C32.6912 1.33514e-05 34.9931 1.10033 36.448 2.64459ZM14.0154 2.64459C16.3264 5.09804 17.5674 7.85142 17.5674 12.3148C17.5674 20.165 12.0568 27.2025 4.03921 30.6807L2.03666 27.5903C9.5186 23.5421 10.9808 18.2915 11.5653 14.9805C10.3607 15.6034 8.7837 15.8226 7.23787 15.6793C3.19014 15.304 0 11.9813 0 7.85142C0 3.5152 3.51519 1.33514e-05 7.85141 1.33514e-05C10.2586 1.33514e-05 12.5605 1.10033 14.0154 2.64459Z" fill="#0B353B"/>
</svg>
