<svg width="21" height="20" viewBox="0 0 21 20" fill="none" xmlns="http://www.w3.org/2000/svg">
<path d="M7.03009 6.27582C7.03009 6.27582 3.14188 6.7045 0.548104 6.9911C0.31432 7.01927 0.107606 7.17482 0.0300876 7.4112C-0.0474304 7.64759 0.0300874 7.89377 0.20235 8.04932C2.12923 9.79955 5.02446 12.4206 5.02446 12.4206C5.022 12.4206 4.22959 16.2334 3.70296 18.7773C3.65867 19.0075 3.74234 19.2513 3.94413 19.397C4.14469 19.5428 4.40309 19.5452 4.60611 19.4313C6.87505 18.1477 10.2735 16.2174 10.2735 16.2174C10.2735 16.2174 13.6733 18.1477 15.9385 19.4325C16.1452 19.5452 16.4036 19.5428 16.6042 19.397C16.806 19.2513 16.8896 19.0075 16.8441 18.7785C16.3175 16.2334 15.5263 12.4206 15.5263 12.4206C15.5263 12.4206 18.4215 9.79955 20.3484 8.053C20.5207 7.89255 20.597 7.64636 20.5207 7.4112C20.4444 7.17605 20.2377 7.0205 20.0039 6.99355C17.4101 6.7045 13.5207 6.27582 13.5207 6.27582C13.5207 6.27582 11.9088 2.72638 10.8346 0.360088C10.7337 0.1482 10.5221 0 10.2735 0C10.025 0 9.81212 0.149425 9.71614 0.360088C8.64074 2.72638 7.03009 6.27582 7.03009 6.27582Z" fill="#36E697"/>
</svg>
