<svg width="60" height="60" viewBox="0 0 60 60" fill="none" xmlns="http://www.w3.org/2000/svg">
<path d="M42.5 30C42.5 36.9036 36.9036 42.5 30 42.5C23.0964 42.5 17.5 36.9036 17.5 30C17.5 23.0964 23.0964 17.5 30 17.5" stroke="#41B883" stroke-width="2.5" stroke-linecap="round"/>
<path d="M35 5.50009C33.3844 5.17215 31.7123 5 30 5C16.1929 5 5 16.1929 5 30C5 43.8071 16.1929 55 30 55C43.8071 55 55 43.8071 55 30C55 28.2877 54.8278 26.6155 54.4999 25" stroke="#41B883" stroke-width="2.5" stroke-linecap="round"/>
<path d="M29.1161 29.1161C28.628 29.6043 28.628 30.3957 29.1161 30.8839C29.6043 31.372 30.3957 31.372 30.8839 30.8839L30 30L29.1161 29.1161ZM49.2272 10.7728L48.0177 11.0884C48.1319 11.5262 48.4738 11.8681 48.9116 11.9823L49.2272 10.7728ZM47.9363 5.82518L46.7268 6.14075V6.14075L47.9363 5.82518ZM45.7451 5.47515L46.629 6.35903V6.35903L45.7451 5.47515ZM42.8716 8.34861L41.9878 7.46473H41.9878L42.8716 8.34861ZM40.6953 15.3782L39.4858 15.6938V15.6938L40.6953 15.3782ZM54.1748 12.0637L53.8592 13.2732V13.2732L54.1748 12.0637ZM54.5249 14.2549L53.641 13.371V13.371L54.5249 14.2549ZM51.6514 17.1284L52.5353 18.0122V18.0122L51.6514 17.1284ZM44.6218 19.3047L44.3062 20.5142H44.3062L44.6218 19.3047ZM41.5078 18.4922L40.6239 17.6083L29.1161 29.1161L30 30L30.8839 30.8839L42.3917 19.3761L41.5078 18.4922ZM49.2272 10.7728L50.4367 10.4572L49.1458 5.5096L47.9363 5.82518L46.7268 6.14075L48.0177 11.0884L49.2272 10.7728ZM45.7451 5.47515L44.8612 4.59127L41.9878 7.46473L42.8716 8.34861L43.7555 9.23249L46.629 6.35903L45.7451 5.47515ZM40.6953 15.3782L39.4858 15.6938L40.2983 18.8078L41.5078 18.4922L42.7173 18.1766L41.9049 15.0626L40.6953 15.3782ZM49.2272 10.7728L48.9116 11.9823L53.8592 13.2732L54.1748 12.0637L54.4904 10.8542L49.5428 9.56328L49.2272 10.7728ZM54.5249 14.2549L53.641 13.371L50.7675 16.2445L51.6514 17.1284L52.5353 18.0122L55.4087 15.1388L54.5249 14.2549ZM44.6218 19.3047L44.9374 18.0951L41.8234 17.2827L41.5078 18.4922L41.1922 19.7017L44.3062 20.5142L44.6218 19.3047ZM51.6514 17.1284L50.7675 16.2445C49.0828 17.9292 46.8037 18.5821 44.9374 18.0951L44.6218 19.3047L44.3062 20.5142C47.1577 21.2582 50.3215 20.226 52.5353 18.0122L51.6514 17.1284ZM54.1748 12.0637L53.8592 13.2732C53.8592 13.2732 53.8585 13.273 53.857 13.2725C53.8555 13.272 53.8534 13.2712 53.8507 13.2701C53.8453 13.2678 53.8383 13.2643 53.8302 13.2593C53.8135 13.249 53.7971 13.2351 53.783 13.2189C53.7541 13.1856 53.7496 13.1599 53.7496 13.1602C53.75 13.1622 53.758 13.254 53.641 13.371L54.5249 14.2549L55.4087 15.1388C56.0568 14.4907 56.3528 13.6077 56.2183 12.7658C56.0801 11.9001 55.477 11.1116 54.4904 10.8542L54.1748 12.0637ZM42.8716 8.34861L41.9878 7.46473C39.774 9.6785 38.7418 12.8423 39.4858 15.6938L40.6953 15.3782L41.9049 15.0626C41.4179 13.1963 42.0708 10.9172 43.7555 9.23249L42.8716 8.34861ZM47.9363 5.82518L49.1458 5.5096C48.8884 4.52296 48.0999 3.91994 47.2342 3.78166C46.3923 3.64717 45.5093 3.94319 44.8612 4.59127L45.7451 5.47515L46.629 6.35903C46.746 6.24198 46.8378 6.25004 46.8398 6.25036C46.8401 6.2504 46.8144 6.24586 46.7811 6.21702C46.7649 6.20294 46.751 6.18649 46.7407 6.16976C46.7357 6.16172 46.7322 6.15471 46.7299 6.1493C46.7288 6.14664 46.728 6.14453 46.7275 6.14303C46.727 6.14154 46.7268 6.14075 46.7268 6.14075L47.9363 5.82518Z" fill="#41B883"/>
</svg>
