<svg width="24" height="24" viewBox="0 0 24 24" fill="none" xmlns="http://www.w3.org/2000/svg">
<rect x="0.5" y="0.5" width="23" height="23" rx="11" stroke="currentColor"/>
<path d="M11.9997 10.0584C11.4839 10.0584 10.9893 10.263 10.6246 10.6271C10.2599 10.9911 10.055 11.4849 10.055 11.9998C10.055 12.5147 10.2599 13.0085 10.6246 13.3726C10.9893 13.7367 11.4839 13.9412 11.9997 13.9412C12.5154 13.9412 13.01 13.7367 13.3747 13.3726C13.7394 13.0085 13.9443 12.5147 13.9443 11.9998C13.9443 11.4849 13.7394 10.9911 13.3747 10.6271C13.01 10.263 12.5154 10.0584 11.9997 10.0584Z" fill="currentColor"/>
<path fill-rule="evenodd" clip-rule="evenodd" d="M8.87066 6.67252C10.9505 6.44249 13.0495 6.44249 15.1294 6.67252C16.2656 6.79915 17.1817 7.69219 17.3151 8.83074C17.5616 10.9362 17.5616 13.0632 17.3151 15.1686C17.1817 16.3072 16.2656 17.2002 15.13 17.3275C13.0499 17.5575 10.9507 17.5575 8.87066 17.3275C7.7344 17.2002 6.81833 16.3072 6.6849 15.1692C6.43837 13.0636 6.43837 10.9364 6.6849 8.83074C6.81833 7.69219 7.7344 6.79915 8.87066 6.67252ZM14.9918 8.41558C14.8331 8.41558 14.6809 8.47852 14.5687 8.59054C14.4564 8.70257 14.3934 8.85451 14.3934 9.01293C14.3934 9.17136 14.4564 9.3233 14.5687 9.43532C14.6809 9.54735 14.8331 9.61028 14.9918 9.61028C15.1504 9.61028 15.3026 9.54735 15.4149 9.43532C15.5271 9.3233 15.5901 9.17136 15.5901 9.01293C15.5901 8.85451 15.5271 8.70257 15.4149 8.59054C15.3026 8.47852 15.1504 8.41558 14.9918 8.41558ZM9.15787 11.9997C9.15787 11.2472 9.45731 10.5254 9.99031 9.99333C10.5233 9.46121 11.2462 9.16227 12 9.16227C12.7538 9.16227 13.4767 9.46121 14.0097 9.99333C14.5427 10.5254 14.8422 11.2472 14.8422 11.9997C14.8422 12.7522 14.5427 13.4739 14.0097 14.006C13.4767 14.5382 12.7538 14.8371 12 14.8371C11.2462 14.8371 10.5233 14.5382 9.99031 14.006C9.45731 13.4739 9.15787 12.7522 9.15787 11.9997Z" fill="currentColor"/>
</svg>
